<svg viewBox="0 10 282 58" xmlns="http://www.w3.org/2000/svg"><path d="M28.584 57.545c.06 0 .117.018.166.052l.048.04 1.572 1.609c.069.07.1.17.084.266l-.021.072-1.645 3.922a.306.306 0 0 1-.207.176l-.07.009h-4.4a.3.3 0 0 1-.241-.125l-.035-.063-1.636-3.923a.32.32 0 0 1 .02-.28l.043-.058 1.563-1.608a.318.318 0 0 1 .154-.082l.059-.007h4.546zm14.353-40.878a.298.298 0 0 1 .294.217l9.39 32.804a.3.3 0 0 1-.203.371c-1.47.425-2.878.996-4.208 1.692a22.995 22.995 0 0 0-8.815 8.171l-.254.417-6.102 3.052a.3.3 0 0 1-.418-.368A27.754 27.754 0 0 1 46.633 47.15a.3.3 0 0 0 .157-.351l-2.342-8.174a.307.307 0 0 0-.047-.093l-3.305-4.547a.301.301 0 0 1 .244-.478h1.24c.2 0 .344-.19.29-.384l-3.09-10.778a.3.3 0 0 0-.392-.2 10.839 10.839 0 0 0-4.802 3.54 10.789 10.789 0 0 0-2.062 4.57.3.3 0 0 1-.294.244H20.404a.3.3 0 0 1-.294-.244 10.789 10.789 0 0 0-2.062-4.57 10.864 10.864 0 0 0-4.802-3.54.3.3 0 0 0-.391.2L9.764 33.124a.302.302 0 0 0 .29.384h1.24a.3.3 0 0 1 .244.478l-3.305 4.547a.35.35 0 0 0-.047.093L5.844 46.8c-.04.14.026.287.157.35a27.765 27.765 0 0 1 14.012 15.872c.087.255-.18.489-.418.369l-6.102-3.052a22.948 22.948 0 0 0-9.07-8.588 22.497 22.497 0 0 0-4.207-1.692.299.299 0 0 1-.204-.371l9.404-32.804a.298.298 0 0 1 .294-.217c1.587.023 3.121.284 4.562.745a15.687 15.687 0 0 1 9.303 8.11c.05.104.154.167.27.167h4.957c.113 0 .22-.067.27-.167a15.687 15.687 0 0 1 9.304-8.11c1.44-.464 2.97-.722 4.561-.745zm230.317 36.315a.3.3 0 0 1 .301.302v4.227a.3.3 0 0 1-.301.302h-19.887a.3.3 0 0 1-.302-.302v-4.227a.3.3 0 0 1 .302-.302h19.887zM110.24 28.832c5.889 0 10.683 4.702 10.844 10.565l.003.302v10.566a.3.3 0 0 1-.301.302h-4.219a.3.3 0 0 1-.301-.302V39.7c0-3.334-2.699-6.038-6.026-6.038h-9.34a.3.3 0 0 0-.302.302l.02 16.302a.3.3 0 0 1-.3.302h-4.24a.3.3 0 0 1-.3-.302V29.133a.3.3 0 0 1 .3-.302h14.163zm46.791 0c.102 0 .195.05.25.133l.035.067 5.072 14.105c.084.239.396.263.529.072l.037-.072 5.065-14.105a.304.304 0 0 1 .21-.191l.075-.01h4.396c.101 0 .195.052.25.134l.034.067 5.072 14.105c.085.239.397.263.53.072l.036-.072 5.069-14.105a.295.295 0 0 1 .207-.191l.074-.01h4.182c.187 0 .322.165.3.34l-.016.066-7.616 21.132a.305.305 0 0 1-.21.189l-.075.01h-4.4a.302.302 0 0 1-.25-.135l-.034-.067-5.069-14.105c-.084-.238-.396-.262-.528-.071l-.037.071-5.07 14.105a.304.304 0 0 1-.21.192l-.074.01h-4.399a.302.302 0 0 1-.25-.132l-.035-.067-7.616-21.132a.305.305 0 0 1 .218-.398l.066-.008h4.182zm59.264-9.243.009.071v30.605a.3.3 0 0 1-.232.294l-.07.008h-15.367c-5.966 0-10.81-4.83-10.848-10.8-.036-5.92 4.76-10.78 10.633-10.932l.285-.004h10.476a.3.3 0 0 0 .294-.232l.008-.07v-6.755c0-.092.04-.178.11-.234l.057-.035 4.218-2.113a.3.3 0 0 1 .427.197zm-75.924 9.242c5.99 0 10.848 4.867 10.848 10.868 0 5.904-4.703 10.711-10.559 10.864l-.289.004h-4.82c-5.99 0-10.848-4.867-10.848-10.868 0-5.904 4.702-10.71 10.558-10.864l.29-.004h4.82zm95.217 0c5.99 0 10.847 4.867 10.847 10.868 0 5.904-4.702 10.711-10.558 10.864l-.289.004h-4.821c-5.99 0-10.848-4.867-10.848-10.868 0-5.904 4.703-10.71 10.559-10.864l.289-.004h4.821zm-147.532 0a.3.3 0 0 1 .268.436l-2.11 4.227a.302.302 0 0 1-.267.167H70.795c-.995 0-1.822.792-1.835 1.785a1.81 1.81 0 0 0 1.808 1.838h13.56c3.652 0 6.618 2.962 6.628 6.625.01 3.663-3.03 6.658-6.686 6.658H65.344a.3.3 0 0 1-.301-.302V46.04a.3.3 0 0 1 .301-.302H84.3c.995 0 1.822-.792 1.835-1.784a1.81 1.81 0 0 0-1.808-1.839h-13.56a6.617 6.617 0 0 1-1.954-.295 6.64 6.64 0 0 1-4.674-6.383c.02-3.663 3.026-6.605 6.682-6.605h17.236zm191.638 0a.3.3 0 0 1 .294.368l-.026.068-2.11 4.227a.295.295 0 0 1-.2.16l-.067.007h-2.3a.3.3 0 0 0-.258.457 10.812 10.812 0 0 1 1.54 5.618c-.02 5.904-4.77 10.675-10.628 10.828l-.29.003h-4.75c-5.966 0-10.81-4.83-10.848-10.8-.036-5.92 4.76-10.78 10.633-10.932l.285-.004h18.725zm-264.86 12.97 6.612 2.491a.301.301 0 0 1 .194.282v3.586c0 .211-.21.356-.408.282l-6.612-2.491a.301.301 0 0 1-.194-.282v-3.586c0-.211.211-.356.408-.282zm23.63.214.008.068v3.586c0 .1-.049.192-.129.248l-.065.034-6.612 2.49a.302.302 0 0 1-.4-.213l-.007-.068v-3.586c0-.1.049-.192.128-.248l.065-.034 6.612-2.49a.302.302 0 0 1 .4.213zm172.717-8.354h-10.546c-3.324 0-6.02 2.697-6.026 6.028-.007 3.252 2.631 5.924 5.85 6.044l.226.004h10.496a.3.3 0 0 0 .294-.232l.008-.07V33.963a.3.3 0 0 0-.302-.302zm-70.81 0h-4.82c-3.329 0-6.027 2.704-6.027 6.038a6.033 6.033 0 0 0 5.8 6.034l.226.004h4.821c3.328 0 6.027-2.704 6.027-6.038s-2.699-6.038-6.027-6.038zm95.217 0h-4.821c-3.328 0-6.026 2.704-6.026 6.038a6.033 6.033 0 0 0 5.8 6.034l.226.004h4.821c3.328 0 6.026-2.704 6.026-6.038s-2.698-6.038-6.026-6.038zm30.082 0h-4.77c-3.325 0-6.02 2.697-6.027 6.028-.006 3.252 2.632 5.924 5.851 6.044l.226.004h4.77c3.325 0 6.02-2.697 6.027-6.028.007-3.327-2.755-6.048-6.076-6.048z" fill="#020C14"></path></svg>
